<mxfile host="app.diagrams.net" modified="2024-02-11T09:47:04.675Z" agent="Mozilla/5.0 (Windows NT 10.0; Win64; x64) AppleWebKit/537.36 (KHTML, like Gecko) Chrome/121.0.0.0 Safari/537.36 Edg/121.0.0.0" etag="VBZ1Er_TlN5rQod_cYPb" version="23.1.2" type="device">
  <diagram id="R2lEEEUBdFMjLlhIrx00" name="Page-1">
    <mxGraphModel dx="3254" dy="841" grid="1" gridSize="10" guides="1" tooltips="1" connect="1" arrows="1" fold="1" page="1" pageScale="1" pageWidth="850" pageHeight="1100" math="0" shadow="0" extFonts="Permanent Marker^https://fonts.googleapis.com/css?family=Permanent+Marker">
      <root>
        <mxCell id="0" />
        <mxCell id="1" parent="0" />
        <mxCell id="tW79HOCLlu8u4uFn6Tpg-7" style="edgeStyle=orthogonalEdgeStyle;rounded=0;orthogonalLoop=1;jettySize=auto;html=1;exitX=1;exitY=0.25;exitDx=0;exitDy=0;entryX=0;entryY=0.25;entryDx=0;entryDy=0;startArrow=ERzeroToMany;startFill=0;endArrow=ERzeroToMany;endFill=0;" edge="1" parent="1" source="Mym8aRrkPGYGRLZ-gvtW-1" target="Mym8aRrkPGYGRLZ-gvtW-1">
          <mxGeometry relative="1" as="geometry">
            <mxPoint x="-1340" y="210" as="targetPoint" />
            <Array as="points">
              <mxPoint x="-1160" y="210" />
              <mxPoint x="-1160" y="150" />
              <mxPoint x="-1400" y="150" />
              <mxPoint x="-1400" y="211" />
            </Array>
          </mxGeometry>
        </mxCell>
        <mxCell id="tW79HOCLlu8u4uFn6Tpg-25" style="edgeStyle=orthogonalEdgeStyle;rounded=0;orthogonalLoop=1;jettySize=auto;html=1;exitX=0.25;exitY=1;exitDx=0;exitDy=0;entryX=1;entryY=0.5;entryDx=0;entryDy=0;endArrow=ERzeroToMany;endFill=0;startArrow=ERzeroToMany;startFill=0;" edge="1" parent="1" source="Mym8aRrkPGYGRLZ-gvtW-1" target="Mym8aRrkPGYGRLZ-gvtW-5">
          <mxGeometry relative="1" as="geometry">
            <Array as="points">
              <mxPoint x="-1305" y="460" />
            </Array>
          </mxGeometry>
        </mxCell>
        <mxCell id="tW79HOCLlu8u4uFn6Tpg-26" value="likes" style="edgeLabel;html=1;align=center;verticalAlign=middle;resizable=0;points=[];" vertex="1" connectable="0" parent="tW79HOCLlu8u4uFn6Tpg-25">
          <mxGeometry x="-0.3261" relative="1" as="geometry">
            <mxPoint as="offset" />
          </mxGeometry>
        </mxCell>
        <mxCell id="Mym8aRrkPGYGRLZ-gvtW-1" value="Users" style="rounded=1;arcSize=10;whiteSpace=wrap;html=1;align=center;" parent="1" vertex="1">
          <mxGeometry x="-1330" y="200" width="100" height="40" as="geometry" />
        </mxCell>
        <mxCell id="Mym8aRrkPGYGRLZ-gvtW-5" value="Articles" style="rounded=1;arcSize=10;whiteSpace=wrap;html=1;align=center;" parent="1" vertex="1">
          <mxGeometry x="-1610" y="440" width="100" height="40" as="geometry" />
        </mxCell>
        <mxCell id="Mym8aRrkPGYGRLZ-gvtW-6" value="Comments" style="rounded=1;arcSize=10;whiteSpace=wrap;html=1;align=center;" parent="1" vertex="1">
          <mxGeometry x="-1170" y="530" width="100" height="40" as="geometry" />
        </mxCell>
        <mxCell id="Mym8aRrkPGYGRLZ-gvtW-9" value="" style="edgeStyle=entityRelationEdgeStyle;fontSize=12;html=1;endArrow=ERzeroToMany;endFill=1;rounded=0;entryX=0;entryY=0.75;entryDx=0;entryDy=0;exitX=1;exitY=0.75;exitDx=0;exitDy=0;" parent="1" source="Mym8aRrkPGYGRLZ-gvtW-5" target="Mym8aRrkPGYGRLZ-gvtW-6" edge="1">
          <mxGeometry width="100" height="100" relative="1" as="geometry">
            <mxPoint x="-1220" y="560" as="sourcePoint" />
            <mxPoint x="-1120" y="460" as="targetPoint" />
          </mxGeometry>
        </mxCell>
        <mxCell id="tW79HOCLlu8u4uFn6Tpg-4" value="article" style="edgeLabel;html=1;align=center;verticalAlign=middle;resizable=0;points=[];" vertex="1" connectable="0" parent="Mym8aRrkPGYGRLZ-gvtW-9">
          <mxGeometry x="-0.04" y="3" relative="1" as="geometry">
            <mxPoint as="offset" />
          </mxGeometry>
        </mxCell>
        <mxCell id="Mym8aRrkPGYGRLZ-gvtW-10" value="" style="edgeStyle=entityRelationEdgeStyle;fontSize=12;html=1;endArrow=ERzeroToMany;endFill=1;rounded=0;entryX=1;entryY=0.25;entryDx=0;entryDy=0;exitX=0;exitY=0.75;exitDx=0;exitDy=0;" parent="1" target="Mym8aRrkPGYGRLZ-gvtW-5" edge="1" source="Mym8aRrkPGYGRLZ-gvtW-1">
          <mxGeometry width="100" height="100" relative="1" as="geometry">
            <mxPoint x="-1420" y="220" as="sourcePoint" />
            <mxPoint x="-1390" y="270" as="targetPoint" />
            <Array as="points">
              <mxPoint x="-1440" y="340" />
            </Array>
          </mxGeometry>
        </mxCell>
        <mxCell id="tW79HOCLlu8u4uFn6Tpg-2" value="author" style="edgeLabel;html=1;align=center;verticalAlign=middle;resizable=0;points=[];" vertex="1" connectable="0" parent="Mym8aRrkPGYGRLZ-gvtW-10">
          <mxGeometry x="-0.0516" y="-1" relative="1" as="geometry">
            <mxPoint as="offset" />
          </mxGeometry>
        </mxCell>
        <mxCell id="tW79HOCLlu8u4uFn6Tpg-1" value="" style="edgeStyle=entityRelationEdgeStyle;fontSize=12;html=1;endArrow=ERzeroToMany;endFill=1;rounded=0;entryX=0;entryY=0.25;entryDx=0;entryDy=0;exitX=1;exitY=0.75;exitDx=0;exitDy=0;" edge="1" parent="1" source="Mym8aRrkPGYGRLZ-gvtW-1" target="Mym8aRrkPGYGRLZ-gvtW-6">
          <mxGeometry width="100" height="100" relative="1" as="geometry">
            <mxPoint x="-1280" y="770" as="sourcePoint" />
            <mxPoint x="-1100" y="550" as="targetPoint" />
            <Array as="points">
              <mxPoint x="-1210" y="660" />
            </Array>
          </mxGeometry>
        </mxCell>
        <mxCell id="tW79HOCLlu8u4uFn6Tpg-3" value="commentor" style="edgeLabel;html=1;align=center;verticalAlign=middle;resizable=0;points=[];" vertex="1" connectable="0" parent="tW79HOCLlu8u4uFn6Tpg-1">
          <mxGeometry x="0.135" y="-2" relative="1" as="geometry">
            <mxPoint as="offset" />
          </mxGeometry>
        </mxCell>
        <mxCell id="tW79HOCLlu8u4uFn6Tpg-21" value="Follow" style="rounded=0;whiteSpace=wrap;html=1;fillColor=none;dashed=1;dashPattern=8 8;" vertex="1" parent="1">
          <mxGeometry x="-1315" y="100" width="70" height="60" as="geometry" />
        </mxCell>
        <mxCell id="tW79HOCLlu8u4uFn6Tpg-27" value="Like" style="rounded=0;whiteSpace=wrap;html=1;fillColor=none;dashed=1;dashPattern=8 8;" vertex="1" parent="1">
          <mxGeometry x="-1315" y="300" width="70" height="60" as="geometry" />
        </mxCell>
      </root>
    </mxGraphModel>
  </diagram>
</mxfile>
